<?xml version="1.0" encoding="utf-8"?>
<!-- Generator: Adobe Illustrator 21.0.2, SVG Export Plug-In . SVG Version: 6.00 Build 0)  -->
<!DOCTYPE svg PUBLIC "-//W3C//DTD SVG 1.1//EN" "http://www.w3.org/Graphics/SVG/1.1/DTD/svg11.dtd">
<svg version="1.1" id="Layer_1" xmlns="http://www.w3.org/2000/svg" xmlns:xlink="http://www.w3.org/1999/xlink" x="0px" y="0px"
	 viewBox="0 0 360 360" style="enable-background:new 0 0 360 360;" xml:space="preserve">
<style type="text/css">
	.st0{fill:#F8F1E6;}
	.st1{fill:#2C3338;}
	.st2{fill:#E64525;}
</style>
<g>
	<path class="st0" d="M283,48.7H78.6c-11.5,0-20.8,9.4-20.8,20.8v152.6c0,11.5,9.3,20.8,20.8,20.8H283c11.5,0,20.8-9.3,20.8-20.8
		V69.6C303.9,58.1,294.5,48.7,283,48.7L283,48.7z M254.2,135.1c-3.4,20.7-28.1,44-48.1,62.8c0,0-9.9,10-12.9,12.5
		c-2.2,1.9-7.1,5.8-12.4,5.8c-5.3,0-10.2-3.9-12.4-5.8c-3-2.6-12.9-12.5-12.9-12.5c-19.9-18.8-44.7-42-48.1-62.8
		c-2.4-14.6-0.1-26.7,6.9-35.9c7-9.3,17.8-14.5,32.8-16.2c1.5-0.1,2.8-0.2,4.1-0.2c10.6,0,21.4,4,29.6,10.6
		c8.2-6.7,19-10.6,29.6-10.6c1.3,0,2.6,0.1,4.1,0.2c15,1.6,25.8,6.9,32.8,16.2C254.3,108.4,256.6,120.5,254.2,135.1L254.2,135.1z
		 M254.2,135.1"/>
	<path class="st1" d="M301.5,279.2H56.7c-14.7,0-26.7,11.9-26.7,26.7v4.8c0,14.7,11.9,26.7,26.7,26.7h244.8
		c14.7,0,26.7-11.9,26.7-26.7v-4.8C328.2,291.2,316.2,279.2,301.5,279.2L301.5,279.2z M188.1,325.8H62.2c-8.7,0-15.8-7.1-15.8-15.8
		v-2.8c0-8.7,7.1-15.8,15.8-15.8h125.8V325.8z M188.1,325.8"/>
	<path class="st0" d="M46.4,307.2v2.8c0,8.7,7.1,15.8,15.8,15.8h125.8v-34.4H62.2C53.5,291.4,46.4,298.4,46.4,307.2L46.4,307.2z
		 M46.4,307.2"/>
	<path class="st2" d="M214.5,83c-1.4-0.1-2.8-0.2-4.1-0.2c-10.6,0-21.4,4-29.6,10.6c-8.2-6.7-19-10.6-29.6-10.6
		c-1.3,0-2.6,0.1-4.1,0.2c-15,1.6-25.8,6.9-32.8,16.2c-7,9.2-9.3,21.3-6.9,35.9c3.4,20.7,28.2,44,48.1,62.8c0,0,9.9,10,12.9,12.5
		c2.3,1.9,7.1,5.8,12.4,5.8c5.3,0,10.2-3.9,12.4-5.8c3-2.6,12.9-12.5,12.9-12.5c19.9-18.8,44.7-42,48.1-62.8
		c2.4-14.6,0.1-26.7-6.9-35.9C240.2,89.9,229.5,84.7,214.5,83L214.5,83z M214.5,83"/>
	<path class="st1" d="M283,22.7H78.6c-25.9,0-46.9,21-46.9,46.9v152.6c0,25.9,21,46.9,46.9,46.9H283c25.9,0,46.9-21,46.9-46.9V69.6
		C329.9,43.7,308.9,22.7,283,22.7L283,22.7z M303.9,222.2c0,11.5-9.4,20.8-20.8,20.8H78.6c-11.5,0-20.8-9.4-20.8-20.8V69.6
		c0-11.5,9.3-20.8,20.8-20.8H283c11.5,0,20.8,9.4,20.8,20.8L303.9,222.2L303.9,222.2z M303.9,222.2"/>
</g>
</svg>
